<?xml version="1.0" encoding="UTF-8" standalone="no"?>
<!DOCTYPE svg PUBLIC "-//W3C//DTD SVG 20010904//EN"
              "http://www.w3.org/TR/2001/REC-SVG-20010904/DTD/svg10.dtd">

<svg xmlns="http://www.w3.org/2000/svg"
     width="9.06667in" height="11.7333in"
     viewBox="0 0 816 1056">
  <path id="Imported Path"
        fill="none" stroke="black" stroke-width="1"
        d="M 0.00,0.00
           C 0.00,0.00 612.00,0.00 612.00,0.00
             612.00,0.00 612.00,792.00 612.00,792.00
             612.00,792.00 0.00,792.00 0.00,792.00
             0.00,792.00 0.00,0.00 0.00,0.00 Z
           M 0.00,0.00
           C 0.00,0.00 612.00,0.00 612.00,0.00
             612.00,0.00 612.00,792.00 612.00,792.00
             612.00,792.00 0.00,792.00 0.00,792.00
             0.00,792.00 0.00,0.00 0.00,0.00 Z
           M 0.00,0.00
           C 0.00,0.00 612.00,0.00 612.00,0.00
             612.00,0.00 612.00,792.00 612.00,792.00
             612.00,792.00 0.00,792.00 0.00,792.00
             0.00,792.00 0.00,0.00 0.00,0.00 Z" />
</svg>
