<svg width="703.828" height="123.008" viewBox="0 0 703.828 123.008" xmlns="http://www.w3.org/2000/svg">
    <g id="svgGroup" stroke-linecap="round" fill-rule="evenodd" font-size="9pt" stroke="#000" stroke-width="0.25mm"
       fill="black" style="stroke:#000;stroke-width:0.25mm;fill:black">
        <path d="M 121.399 65.244 A 228.204 228.204 0 0 0 124.291 61.538 A 814.721 814.721 0 0 1 124.28 61.582 A 538.527 538.527 0 0 1 123.511 64.622 A 454.86 454.86 0 0 1 122.767 67.49 Q 122.309 69.23 121.927 70.683 A 3232.082 3232.082 0 0 0 121.497 72.324 A 160.983 160.983 0 0 0 121.465 72.447 Q 120.957 74.393 120.862 74.961 Q 120.667 75.84 121.888 75.84 A 5.868 5.868 0 0 0 122.553 75.8 Q 123.061 75.742 123.632 75.599 A 12.615 12.615 0 0 0 124.769 75.254 A 15.398 15.398 0 0 0 127.894 73.74 A 8.54 8.54 0 0 0 128.072 73.624 Q 128.858 73.099 129.27 72.558 A 2.277 2.277 0 0 0 129.651 71.836 A 63.721 63.721 0 0 1 129.844 70.967 A 75.417 75.417 0 0 1 130.335 68.955 A 69.769 69.769 0 0 0 130.446 68.52 Q 130.787 67.16 131.165 65.439 A 220.166 220.166 0 0 1 131.193 65.31 Q 131.408 64.335 131.657 63.245 A 366.778 366.778 0 0 1 132.19 60.947 A 160.876 160.876 0 0 1 132.585 59.31 Q 132.797 58.451 133.037 57.51 A 287.43 287.43 0 0 1 133.655 55.137 Q 135.315 52.695 137.024 50.4 A 46.536 46.536 0 0 1 138.413 48.624 A 36.911 36.911 0 0 1 140.442 46.348 A 24.741 24.741 0 0 1 140.656 46.13 Q 142.255 44.526 143.811 43.564 Q 145.472 42.539 147.034 42.539 Q 147.981 42.539 148.439 43.327 A 2.648 2.648 0 0 1 148.694 43.955 A 5.832 5.832 0 0 1 148.746 44.158 Q 149.002 45.234 148.944 46.729 A 16.893 16.893 0 0 1 148.89 47.568 Q 148.786 48.736 148.558 50.041 A 41.578 41.578 0 0 1 148.06 52.451 Q 147.425 55.137 146.692 57.822 Q 145.96 60.508 145.276 62.803 A 98.468 98.468 0 0 0 145.148 63.238 Q 144.564 65.23 144.3 66.465 A 12.003 12.003 0 0 0 144.152 67.178 Q 143.995 68.08 143.995 68.933 A 8.667 8.667 0 0 0 144.104 70.322 Q 144.397 72.129 145.374 73.496 Q 146.351 74.863 147.962 75.693 A 6.4 6.4 0 0 0 148.019 75.723 Q 149.613 76.523 151.819 76.523 Q 153.095 76.523 154.457 76.059 A 11.966 11.966 0 0 0 156.36 75.205 A 25.146 25.146 0 0 0 158.539 73.85 A 32.209 32.209 0 0 0 161.194 71.787 A 41.994 41.994 0 0 0 161.65 71.389 A 45.901 45.901 0 0 0 165.882 67.1 A 122.53 122.53 0 0 0 166.439 66.453 A 110.789 110.789 0 0 0 168.022 64.564 A 19.033 19.033 0 0 0 168.152 65.959 A 13.424 13.424 0 0 0 168.616 68.125 Q 169.397 70.664 170.618 72.227 A 8.658 8.658 0 0 0 171.456 73.157 A 6.692 6.692 0 0 0 173.401 74.473 Q 174.134 74.793 174.823 74.963 A 6.285 6.285 0 0 0 176.331 75.156 A 11.089 11.089 0 0 0 177.53 75.091 Q 180.788 74.737 184.29 72.471 Q 186.495 71.044 188.686 69.08 A 49.539 49.539 0 0 0 192.542 65.195 A 304.702 304.702 0 0 1 192.512 65.452 Q 192.386 66.514 192.304 67.136 A 37.363 37.363 0 0 1 192.249 67.539 Q 192.151 69.102 192.688 70.664 A 9.873 9.873 0 0 0 194.202 73.496 Q 195.179 74.766 196.399 75.547 Q 197.62 76.328 198.987 76.328 A 6.267 6.267 0 0 0 200.008 76.241 Q 200.776 76.115 201.612 75.802 A 12.809 12.809 0 0 0 203.138 75.107 A 28.272 28.272 0 0 0 205.481 73.704 A 38.014 38.014 0 0 0 207.923 71.934 A 46.354 46.354 0 0 0 209.79 70.386 A 55.222 55.222 0 0 0 212.903 67.441 A 100.055 100.055 0 0 0 216.917 63.103 A 19.94 19.94 0 0 0 216.996 63.766 A 14.512 14.512 0 0 0 217.688 66.66 A 18.563 18.563 0 0 0 218.915 69.408 A 13.567 13.567 0 0 0 220.96 72.227 A 15.347 15.347 0 0 0 221.811 73.053 A 12.815 12.815 0 0 0 225.501 75.4 Q 226.688 75.889 227.797 76.145 A 10.421 10.421 0 0 0 230.14 76.426 A 18.385 18.385 0 0 0 234.17 75.968 A 23.122 23.122 0 0 0 238.587 74.473 A 39.217 39.217 0 0 0 241.016 73.277 A 44.803 44.803 0 0 0 247.083 69.346 A 60.473 60.473 0 0 0 250.006 66.952 A 857.921 857.921 0 0 1 249.567 67.837 A 597.442 597.442 0 0 1 248.743 69.492 L 247.425 72.129 A 5.515 5.515 0 0 0 247.211 72.609 Q 246.88 73.467 247.034 74.082 Q 247.229 74.863 247.864 75.107 A 1.554 1.554 0 0 0 248.427 75.209 Q 248.845 75.209 249.329 75.01 A 2.413 2.413 0 0 0 249.804 74.746 Q 250.36 74.352 250.843 73.594 Q 251.136 73.203 252.356 71.201 A 13202.869 13202.869 0 0 1 253.172 69.864 Q 254.126 68.299 255.335 66.318 A 1240.234 1240.234 0 0 0 257.154 63.328 A 1526.901 1526.901 0 0 0 259.095 60.117 A 1755.064 1755.064 0 0 0 261.048 56.87 A 1521.982 1521.982 0 0 0 262.903 53.77 Q 264.032 51.877 264.99 50.291 A 539.639 539.639 0 0 1 266.077 48.496 Q 267.145 46.741 267.617 45.94 A 33.435 33.435 0 0 0 267.835 45.566 A 8.863 8.863 0 0 1 268.589 45.792 A 11.579 11.579 0 0 1 269.495 46.152 A 3.771 3.771 0 0 0 269.773 46.263 Q 270.194 46.411 270.694 46.481 A 6.871 6.871 0 0 0 271.644 46.543 Q 272.303 46.543 272.715 46.516 A 5.678 5.678 0 0 0 272.962 46.494 Q 273.401 46.445 273.645 46.445 A 2.484 2.484 0 0 0 274.134 46.397 A 1.729 1.729 0 0 1 274.284 46.374 Q 274.53 46.348 274.964 46.348 A 1.91 1.91 0 0 1 275.313 46.378 A 1.283 1.283 0 0 1 276.233 47.031 A 2.862 2.862 0 0 1 276.507 47.691 A 3.373 3.373 0 0 1 276.624 48.594 A 3.706 3.706 0 0 1 276.623 48.659 Q 276.6 50.008 275.599 51.963 A 66.652 66.652 0 0 1 274.896 53.295 Q 274.054 54.85 272.913 56.797 A 43.962 43.962 0 0 1 272.562 57.484 A 48.924 48.924 0 0 1 271.399 59.58 Q 270.569 60.996 269.837 62.412 A 37.515 37.515 0 0 0 269.398 63.288 A 31.67 31.67 0 0 0 268.567 65.147 A 10.023 10.023 0 0 0 268.176 66.292 A 7.485 7.485 0 0 0 267.933 67.637 A 8.128 8.128 0 0 0 267.915 68.177 Q 267.915 69.412 268.274 70.811 A 9.176 9.176 0 0 0 269.739 73.936 A 8.057 8.057 0 0 0 270.598 74.936 A 9.232 9.232 0 0 0 272.425 76.328 A 6.008 6.008 0 0 0 273.036 76.641 Q 273.851 77.003 274.843 77.167 A 10.9 10.9 0 0 0 276.624 77.305 Q 278.074 77.305 279.609 76.788 A 13.413 13.413 0 0 0 281.751 75.84 A 28.054 28.054 0 0 0 284.101 74.399 A 34.825 34.825 0 0 0 287.122 72.08 A 50.252 50.252 0 0 0 292.249 67.002 A 111.442 111.442 0 0 0 293.732 65.277 A 94.316 94.316 0 0 0 296.692 61.582 A 121.934 121.934 0 0 0 297.244 60.85 A 99.934 99.934 0 0 0 297.307 60.766 A 75.246 75.246 0 0 0 297.289 61.047 Q 297.055 64.879 297.327 67.148 A 6.977 6.977 0 0 0 297.342 67.355 A 7.104 7.104 0 0 0 298.304 70.322 A 10.096 10.096 0 0 0 300.501 72.959 A 10.321 10.321 0 0 0 303.431 74.717 Q 305.042 75.352 306.702 75.254 Q 308.24 75.181 310.465 73.789 A 23.153 23.153 0 0 0 312.024 72.715 Q 315.296 70.273 318.714 66.807 A 96.422 96.422 0 0 0 324.331 60.594 A 814.721 814.721 0 0 1 324.085 61.582 A 538.527 538.527 0 0 1 323.316 64.622 A 454.86 454.86 0 0 1 322.571 67.49 Q 322.113 69.23 321.732 70.683 A 3232.082 3232.082 0 0 0 321.302 72.324 A 160.983 160.983 0 0 0 321.27 72.447 Q 320.762 74.393 320.667 74.961 Q 320.472 75.84 321.692 75.84 A 5.868 5.868 0 0 0 322.358 75.8 Q 322.865 75.742 323.437 75.599 A 12.615 12.615 0 0 0 324.573 75.254 A 15.398 15.398 0 0 0 327.698 73.74 A 8.54 8.54 0 0 0 327.877 73.624 Q 328.662 73.099 329.074 72.558 A 2.277 2.277 0 0 0 329.456 71.836 A 63.721 63.721 0 0 1 329.649 70.967 A 75.417 75.417 0 0 1 330.14 68.955 A 69.769 69.769 0 0 0 330.25 68.52 Q 330.592 67.16 330.97 65.439 A 220.166 220.166 0 0 1 330.998 65.31 Q 331.213 64.335 331.462 63.245 A 366.778 366.778 0 0 1 331.995 60.947 A 160.876 160.876 0 0 1 332.39 59.31 Q 332.602 58.451 332.842 57.51 A 287.43 287.43 0 0 1 333.46 55.137 Q 335.12 52.695 336.829 50.4 A 46.536 46.536 0 0 1 338.218 48.624 A 36.911 36.911 0 0 1 340.247 46.348 A 24.741 24.741 0 0 1 340.461 46.13 Q 342.06 44.526 343.616 43.564 Q 345.276 42.539 346.839 42.539 Q 347.786 42.539 348.244 43.327 A 2.648 2.648 0 0 1 348.499 43.955 A 5.832 5.832 0 0 1 348.551 44.158 Q 348.807 45.234 348.749 46.729 A 16.893 16.893 0 0 1 348.694 47.568 Q 348.591 48.736 348.363 50.041 A 41.578 41.578 0 0 1 347.864 52.451 Q 347.229 55.137 346.497 57.822 Q 345.765 60.508 345.081 62.803 A 98.468 98.468 0 0 0 344.952 63.238 Q 344.369 65.23 344.104 66.465 A 12.003 12.003 0 0 0 343.957 67.178 Q 343.799 68.08 343.799 68.933 A 8.667 8.667 0 0 0 343.909 70.322 Q 344.202 72.129 345.179 73.496 Q 346.155 74.863 347.767 75.693 A 6.4 6.4 0 0 0 347.824 75.723 Q 349.418 76.523 351.624 76.523 Q 352.9 76.523 354.261 76.059 A 11.966 11.966 0 0 0 356.165 75.205 A 25.146 25.146 0 0 0 358.343 73.85 A 32.209 32.209 0 0 0 360.999 71.787 A 41.994 41.994 0 0 0 361.455 71.389 A 45.901 45.901 0 0 0 365.686 67.1 A 122.53 122.53 0 0 0 366.243 66.453 A 110.789 110.789 0 0 0 368.904 63.229 A 33.045 33.045 0 0 0 369.049 64.713 Q 369.301 66.726 369.822 68.368 A 12.477 12.477 0 0 0 371.399 71.689 A 10.814 10.814 0 0 0 372.247 72.773 A 7.651 7.651 0 0 0 378.186 75.449 A 17.435 17.435 0 0 0 379.038 75.429 A 14.31 14.31 0 0 0 386.341 73.106 A 23.906 23.906 0 0 0 392.444 67.344 A 56.02 56.02 0 0 1 392.405 67.527 Q 392.122 68.824 391.712 70.42 A 511.165 511.165 0 0 0 391.26 72.19 A 622.818 622.818 0 0 0 390.784 74.082 A 111.005 111.005 0 0 0 389.365 75.222 A 135.725 135.725 0 0 0 386.878 77.305 Q 384.827 79.063 382.581 81.016 Q 379.139 83.945 376.63 86.161 A 225.278 225.278 0 0 0 375.061 87.559 A 48.056 48.056 0 0 0 374.043 88.502 Q 372.966 89.529 372.082 90.509 A 25.403 25.403 0 0 0 370.423 92.539 A 16.763 16.763 0 0 0 369.914 93.277 A 14.423 14.423 0 0 0 368.03 97.471 Q 367.598 99.108 367.439 101.274 A 36.886 36.886 0 0 0 367.347 103.965 A 25.01 25.01 0 0 0 367.53 106.919 A 32.951 32.951 0 0 0 368.079 110.117 Q 368.811 113.438 370.374 116.318 A 18.499 18.499 0 0 0 371.039 117.448 A 15.621 15.621 0 0 0 374.231 121.104 A 8.037 8.037 0 0 0 376.715 122.517 A 9.089 9.089 0 0 0 379.749 123.008 A 4.643 4.643 0 0 0 382.401 122.167 A 6.928 6.928 0 0 0 383.655 121.055 Q 384.651 119.948 385.553 118.482 A 26.189 26.189 0 0 0 386.878 116.025 A 47.6 47.6 0 0 0 388.282 112.754 A 61.618 61.618 0 0 0 389.563 109.092 A 109.879 109.879 0 0 0 391.712 101.328 A 298.123 298.123 0 0 0 392.591 97.52 A 252.213 252.213 0 0 0 393.372 93.906 L 394.593 88.047 A 142.894 142.894 0 0 1 395.13 85.679 A 193.913 193.913 0 0 1 395.765 83.066 Q 396.277 81.016 396.955 78.031 A 473.187 473.187 0 0 0 397.425 75.938 A 78.333 78.333 0 0 0 399.242 74.794 Q 400.214 74.165 401.316 73.42 A 170.697 170.697 0 0 0 402.845 72.373 A 71.817 71.817 0 0 0 405.354 70.552 A 88.442 88.442 0 0 0 409.388 67.295 A 90.694 90.694 0 0 0 415.979 61.045 A 47.792 47.792 0 0 0 417.53 59.345 A 41.411 41.411 0 0 0 421.448 54.063 A 7.91 7.91 0 0 0 421.6 53.806 Q 422.214 52.717 422.083 52.061 Q 421.936 51.328 421.204 51.182 A 1.786 1.786 0 0 0 420.853 51.148 Q 420.464 51.148 420.016 51.302 A 4.294 4.294 0 0 0 419.495 51.523 Q 418.9 51.821 418.377 52.372 A 6.072 6.072 0 0 0 417.737 53.184 A 15.157 15.157 0 0 1 417.361 53.687 Q 416.692 54.546 415.668 55.646 A 56.735 56.735 0 0 1 414.71 56.65 A 80.186 80.186 0 0 1 412.513 58.811 A 105.64 105.64 0 0 1 410.022 61.094 A 99.458 99.458 0 0 1 404.456 65.684 A 58.074 58.074 0 0 1 401.93 67.518 A 45.757 45.757 0 0 1 398.792 69.492 A 7249.384 7249.384 0 0 1 400.599 61.484 A 561.296 561.296 0 0 1 401.502 57.554 A 429.558 429.558 0 0 1 402.356 53.965 Q 402.875 51.829 403.28 50.055 A 175.602 175.602 0 0 0 403.724 48.057 Q 404.16 46.033 404.371 45.203 A 11.432 11.432 0 0 1 404.456 44.883 Q 404.822 43.491 405.079 42.594 A 43.33 43.33 0 0 1 405.237 42.051 A 18.68 18.68 0 0 1 405.386 41.577 Q 405.495 41.247 405.603 40.964 A 8.68 8.68 0 0 1 405.823 40.439 A 47.191 47.191 0 0 1 405.896 40.282 A 42.853 42.853 0 0 1 406.409 39.219 A 25.67 25.67 0 0 0 406.557 38.917 Q 406.817 38.381 407.19 37.559 A 0.352 0.352 0 0 0 407.179 37.472 Q 407.11 37.196 406.601 36.874 A 4.89 4.89 0 0 0 406.263 36.68 A 3.588 3.588 0 0 0 405.97 36.542 Q 405.127 36.191 403.968 36.191 Q 401.526 36.191 400.306 37.412 A 4.438 4.438 0 0 0 399.87 37.925 Q 398.908 39.236 398.108 41.953 A 4.411 4.411 0 0 0 397.937 42.478 A 5.964 5.964 0 0 0 397.815 43.076 Q 397.718 43.711 397.522 44.297 A 23.867 23.867 0 0 0 397.156 42.673 A 31.175 31.175 0 0 0 396.644 40.928 Q 396.058 39.121 394.983 37.51 Q 393.909 35.898 392.347 34.824 Q 390.784 33.75 388.636 33.75 Q 384.046 33.75 380.335 36.582 A 25.537 25.537 0 0 0 374.085 43.516 A 35.502 35.502 0 0 0 370.179 52.305 A 43.981 43.981 0 0 0 369.78 53.762 A 34.202 34.202 0 0 0 369.206 56.421 A 147.674 147.674 0 0 1 369.104 56.553 Q 366.663 59.727 363.929 62.754 A 53.878 53.878 0 0 1 361.545 65.235 A 41.685 41.685 0 0 1 358.509 67.93 A 18.747 18.747 0 0 1 357.717 68.531 Q 356.372 69.494 355.287 69.858 A 3.864 3.864 0 0 1 354.065 70.078 Q 352.761 70.078 352.344 69.217 A 2.037 2.037 0 0 1 352.161 68.516 A 6.324 6.324 0 0 1 352.158 68.477 Q 352.067 67.436 352.297 66.139 A 15.173 15.173 0 0 1 352.601 64.805 A 133.02 133.02 0 0 0 353.589 61.619 A 99.663 99.663 0 0 0 354.407 58.701 Q 354.865 56.962 355.227 55.508 A 159.592 159.592 0 0 0 355.628 53.867 L 356.702 49.57 Q 357.455 46.892 357.455 44.572 A 13.76 13.76 0 0 0 357.435 43.809 A 18.817 18.817 0 0 0 357.414 43.482 Q 357.331 42.348 357.117 41.355 A 11.004 11.004 0 0 0 356.458 39.268 A 8.567 8.567 0 0 0 355.941 38.262 A 6.71 6.71 0 0 0 354.163 36.289 A 5.473 5.473 0 0 0 350.843 35.215 Q 348.597 35.215 346.448 36.143 Q 344.3 37.07 342.395 38.535 A 25.692 25.692 0 0 0 338.88 41.807 A 50.027 50.027 0 0 0 337.906 42.931 A 42.41 42.41 0 0 0 335.999 45.371 A 39.525 39.525 0 0 0 336.28 44.547 A 34.575 34.575 0 0 0 336.976 42.148 A 93.195 93.195 0 0 1 337.366 40.818 A 79.757 79.757 0 0 1 337.757 39.561 A 43.684 43.684 0 0 1 337.831 39.33 Q 338.176 38.274 338.44 37.656 A 4.032 4.032 0 0 0 337.122 36.924 A 9.128 9.128 0 0 0 336.669 36.786 A 7.698 7.698 0 0 0 335.706 36.582 Q 334.925 36.484 334.144 36.484 A 7.571 7.571 0 0 0 334.034 36.497 A 6.829 6.829 0 0 0 332.483 36.875 A 8.374 8.374 0 0 0 330.97 37.412 A 5.632 5.632 0 0 0 330.472 37.676 A 6.592 6.592 0 0 0 329.554 38.34 A 298.514 298.514 0 0 0 328.638 41.904 A 228.456 228.456 0 0 0 327.845 45.176 Q 327.112 48.301 326.624 50.645 A 1999.136 1999.136 0 0 1 326.448 51.466 A 28.155 28.155 0 0 1 326.331 51.628 Q 325.464 52.816 324.146 54.407 A 113.258 113.258 0 0 1 322.913 55.869 A 82.815 82.815 0 0 1 322.748 56.061 A 89.873 89.873 0 0 1 317.2 61.924 A 63.253 63.253 0 0 1 314.717 64.207 A 50.229 50.229 0 0 1 311.145 67.051 Q 309.138 68.498 307.597 68.971 A 4.744 4.744 0 0 1 306.214 69.199 A 2.006 2.006 0 0 1 305.634 69.115 A 2.203 2.203 0 0 1 304.944 68.76 Q 304.523 68.444 304.152 67.75 A 6.971 6.971 0 0 1 303.87 67.148 A 2.723 2.723 0 0 1 303.706 66.736 Q 303.471 65.976 303.535 64.829 A 10.61 10.61 0 0 1 303.577 64.316 A 24.435 24.435 0 0 1 303.813 62.646 A 30.607 30.607 0 0 1 304.31 60.361 A 80.278 80.278 0 0 1 304.377 60.099 A 87.832 87.832 0 0 1 305.53 56.064 A 185.399 185.399 0 0 0 305.62 55.775 Q 306.246 53.75 306.702 52.109 A 37.349 37.349 0 0 1 306.811 51.727 Q 307.158 50.525 307.709 48.896 A 123.801 123.801 0 0 1 308.167 47.568 A 396.335 396.335 0 0 0 308.289 47.221 A 362.977 362.977 0 0 0 310.022 42.148 A 220.067 220.067 0 0 0 310.543 40.567 Q 311.084 38.901 311.487 37.559 A 56.378 56.378 0 0 0 311.626 37.089 Q 312.023 35.721 311.986 35.533 A 0.049 0.049 0 0 0 311.976 35.508 A 0.2 0.2 0 0 0 311.96 35.501 Q 311.754 35.42 310.756 35.452 A 25.436 25.436 0 0 0 310.56 35.459 A 18.749 18.749 0 0 0 309.278 35.557 A 25.132 25.132 0 0 0 307.874 35.752 A 25.652 25.652 0 0 0 305.042 36.387 Q 303.675 36.777 303.186 37.363 A 8.459 8.459 0 0 0 303.017 37.582 Q 302.037 38.894 301.194 41.031 A 30.598 30.598 0 0 0 300.403 43.32 A 65.166 65.166 0 0 0 299.961 44.837 A 72.796 72.796 0 0 0 298.401 51.768 A 90.536 90.536 0 0 0 298.306 52.322 A 82.834 82.834 0 0 0 298.189 53.024 A 207.732 207.732 0 0 0 297.669 53.77 Q 296.982 54.758 296.126 55.886 A 92.845 92.845 0 0 1 294.69 57.725 A 97.7 97.7 0 0 1 293.793 58.829 A 111.846 111.846 0 0 1 290.882 62.217 A 61.875 61.875 0 0 1 289.853 63.34 A 54.646 54.646 0 0 1 286.731 66.416 A 31.927 31.927 0 0 1 284.784 68.051 A 23.995 23.995 0 0 1 282.63 69.541 A 11.224 11.224 0 0 1 281.8 70.002 Q 281.122 70.34 280.486 70.528 A 5.36 5.36 0 0 1 278.968 70.762 Q 276.722 70.762 276.233 69.981 A 3.697 3.697 0 0 1 276.028 69.604 Q 275.859 69.246 275.736 68.809 A 7.481 7.481 0 0 1 275.55 67.93 A 4.981 4.981 0 0 1 275.525 67.434 Q 275.525 65.671 276.722 63.535 A 59.316 59.316 0 0 1 277.918 61.492 A 46.676 46.676 0 0 1 279.456 59.141 A 107.5 107.5 0 0 0 279.743 58.74 Q 280.736 57.344 281.591 56.048 A 66.129 66.129 0 0 0 283.265 53.379 Q 284.827 50.742 284.534 48.301 Q 284.436 47.129 284.095 45.713 A 10.326 10.326 0 0 0 283.069 43.076 A 6.691 6.691 0 0 0 281.311 41.025 A 3.853 3.853 0 0 0 279.785 40.322 A 5.46 5.46 0 0 0 278.577 40.195 Q 277.594 40.195 276.99 40.296 A 3.235 3.235 0 0 0 276.575 40.391 A 3.028 3.028 0 0 1 276.183 40.479 Q 275.534 40.586 274.378 40.586 A 8.234 8.234 0 0 1 274.039 40.579 Q 273.223 40.546 272.815 40.342 A 11.362 11.362 0 0 1 272.516 40.187 Q 272.231 40.034 272.034 39.902 Q 273.108 38.34 273.499 36.387 Q 273.808 34.841 273.75 33.723 A 5.577 5.577 0 0 0 273.694 33.164 A 7.619 7.619 0 0 0 273.346 31.559 A 8.985 8.985 0 0 0 272.376 29.551 Q 271.569 28.287 269.929 27.932 A 6.667 6.667 0 0 0 268.519 27.793 A 3.36 3.36 0 0 0 267.58 27.93 Q 267.026 28.091 266.458 28.439 A 7.182 7.182 0 0 0 265.491 29.16 A 14.927 14.927 0 0 0 264.543 30.067 A 17.177 17.177 0 0 0 262.659 32.432 A 19.873 19.873 0 0 0 260.608 36.387 A 12.514 12.514 0 0 0 260.272 37.386 Q 259.963 38.464 259.985 39.276 A 3.441 3.441 0 0 0 260.022 39.707 Q 260.166 40.783 260.415 41.306 A 1.3 1.3 0 0 0 260.608 41.611 Q 260.901 41.941 261.579 42.573 A 53.431 53.431 0 0 0 262.073 43.027 Q 261.487 44.102 260.218 46.494 Q 258.948 48.887 257.435 51.914 A 1137.77 1137.77 0 0 0 255.884 55.027 A 1329.819 1329.819 0 0 0 255.617 55.565 A 206.023 206.023 0 0 1 254.31 56.992 A 77.803 77.803 0 0 1 247.864 63.193 A 53.055 53.055 0 0 1 246.34 64.454 A 46.157 46.157 0 0 1 240.784 68.272 A 20.524 20.524 0 0 1 240.478 68.446 Q 238.999 69.272 237.57 69.743 A 11.834 11.834 0 0 1 233.851 70.371 A 10.98 10.98 0 0 1 230.774 69.932 A 6.985 6.985 0 0 1 228.089 68.467 A 7.162 7.162 0 0 1 227.015 67.283 A 9.218 9.218 0 0 1 226.136 65.781 Q 225.354 64.121 225.257 61.68 Q 226.081 61.075 227.059 60.394 A 134.254 134.254 0 0 1 228.675 59.287 A 987.321 987.321 0 0 0 230.677 57.932 A 1144.49 1144.49 0 0 0 232.776 56.504 Q 234.729 55.137 236.927 53.477 Q 239.124 51.816 241.077 49.766 Q 243.03 47.715 244.446 45.176 Q 245.862 42.637 246.155 39.609 Q 246.181 39.244 246.174 38.894 A 5.793 5.793 0 0 0 244.69 35.02 A 4.84 4.84 0 0 0 243.068 33.848 Q 242.265 33.481 241.244 33.311 A 11.749 11.749 0 0 0 239.319 33.164 A 12.994 12.994 0 0 0 235.122 33.874 A 16.729 16.729 0 0 0 231.556 35.606 A 27.97 27.97 0 0 0 231.285 35.779 A 29.517 29.517 0 0 0 224.622 41.758 A 38.476 38.476 0 0 0 219.446 49.912 A 30.535 30.535 0 0 0 217.894 53.849 A 22.454 22.454 0 0 0 217.115 57.141 A 190.551 190.551 0 0 1 215.894 58.518 A 232.189 232.189 0 0 1 213.733 60.898 A 80.561 80.561 0 0 1 212.61 62.095 A 70.716 70.716 0 0 1 209.241 65.391 Q 206.995 67.441 204.993 68.809 Q 202.991 70.176 201.624 70.176 A 2.555 2.555 0 0 1 200.166 69.71 A 3.888 3.888 0 0 1 199.476 69.102 Q 198.577 68.113 198.588 65.966 A 10.936 10.936 0 0 1 198.597 65.586 A 20.796 20.796 0 0 1 198.606 65.432 Q 198.714 63.801 199.134 61.191 Q 199.573 58.457 200.061 55.43 A 109.442 109.442 0 0 0 206.067 45.127 A 122.788 122.788 0 0 0 210.999 34.287 A 100.14 100.14 0 0 0 212.261 30.933 A 85.422 85.422 0 0 0 214.466 23.789 A 53.233 53.233 0 0 0 215.503 18.906 A 39.461 39.461 0 0 0 215.979 14.414 A 76.783 76.783 0 0 0 216.005 13.927 Q 216.161 10.754 215.979 8.848 Q 215.784 6.797 215.247 5.772 A 4.071 4.071 0 0 0 215.055 5.442 Q 214.865 5.15 214.649 4.941 A 1.816 1.816 0 0 0 213.929 4.502 A 5.139 5.139 0 0 0 213.126 4.323 A 6.716 6.716 0 0 0 212.171 4.258 A 4.617 4.617 0 0 0 211.391 4.327 A 5.98 5.98 0 0 0 210.511 4.551 A 8.863 8.863 0 0 0 209.757 4.777 A 11.579 11.579 0 0 0 208.851 5.137 A 6.075 6.075 0 0 0 208.663 5.224 Q 208.256 5.422 207.827 5.702 A 10.822 10.822 0 0 0 206.995 6.309 A 388.164 388.164 0 0 0 205.506 11.362 A 330.479 330.479 0 0 0 204.163 16.172 A 22873.797 22873.797 0 0 0 203.812 17.469 Q 203.294 19.383 202.828 21.105 A 13274.167 13274.167 0 0 0 201.917 24.473 A 668.832 668.832 0 0 1 200.867 28.525 A 536.832 536.832 0 0 1 199.866 32.285 A 200.517 200.517 0 0 0 199.28 34.8 A 235.681 235.681 0 0 0 198.694 37.461 Q 198.108 40.195 197.425 43.027 A 15.357 15.357 0 0 0 197.046 41.611 A 20.36 20.36 0 0 0 196.497 40.098 A 13.101 13.101 0 0 0 194.886 37.217 A 8.179 8.179 0 0 0 192.542 35.068 A 5.721 5.721 0 0 0 189.515 34.238 A 13.557 13.557 0 0 0 185.718 34.788 A 16.721 16.721 0 0 0 181.946 36.436 A 22.232 22.232 0 0 0 179.454 38.131 A 25.447 25.447 0 0 0 175.208 42.393 Q 172.229 46.152 170.276 51.231 A 34.725 34.725 0 0 0 168.527 57.544 A 102.369 102.369 0 0 1 164.124 62.754 A 53.878 53.878 0 0 1 161.741 65.235 A 41.685 41.685 0 0 1 158.704 67.93 A 18.747 18.747 0 0 1 157.912 68.531 Q 156.568 69.494 155.482 69.858 A 3.864 3.864 0 0 1 154.261 70.078 Q 152.956 70.078 152.539 69.217 A 2.037 2.037 0 0 1 152.356 68.516 A 6.324 6.324 0 0 1 152.353 68.477 Q 152.262 67.436 152.492 66.139 A 15.173 15.173 0 0 1 152.796 64.805 A 133.02 133.02 0 0 0 153.785 61.619 A 99.663 99.663 0 0 0 154.603 58.701 Q 155.06 56.962 155.423 55.508 A 159.592 159.592 0 0 0 155.823 53.867 L 156.897 49.57 Q 157.651 46.892 157.651 44.572 A 13.76 13.76 0 0 0 157.63 43.809 A 18.817 18.817 0 0 0 157.609 43.482 Q 157.526 42.348 157.312 41.355 A 11.004 11.004 0 0 0 156.653 39.268 A 8.567 8.567 0 0 0 156.136 38.262 A 6.71 6.71 0 0 0 154.358 36.289 A 5.473 5.473 0 0 0 151.038 35.215 Q 148.792 35.215 146.644 36.143 Q 144.495 37.07 142.591 38.535 A 25.692 25.692 0 0 0 139.075 41.807 A 50.027 50.027 0 0 0 138.101 42.931 A 42.41 42.41 0 0 0 136.194 45.371 A 39.525 39.525 0 0 0 136.475 44.547 A 34.575 34.575 0 0 0 137.171 42.148 A 93.195 93.195 0 0 1 137.561 40.818 A 79.757 79.757 0 0 1 137.952 39.561 A 43.684 43.684 0 0 1 138.027 39.33 Q 138.371 38.274 138.636 37.656 A 4.032 4.032 0 0 0 137.317 36.924 A 9.128 9.128 0 0 0 136.864 36.786 A 7.698 7.698 0 0 0 135.901 36.582 Q 135.12 36.484 134.339 36.484 A 7.571 7.571 0 0 0 134.229 36.497 A 6.829 6.829 0 0 0 132.679 36.875 A 8.374 8.374 0 0 0 131.165 37.412 A 5.632 5.632 0 0 0 130.667 37.676 A 6.592 6.592 0 0 0 129.749 38.34 A 298.514 298.514 0 0 0 128.833 41.904 A 228.456 228.456 0 0 0 128.04 45.176 Q 127.308 48.301 126.819 50.645 A 1999.136 1999.136 0 0 1 126.38 52.691 A 269.717 269.717 0 0 1 125.989 53.184 Q 125.248 54.117 124.398 55.206 A 452.476 452.476 0 0 0 123.011 56.992 A 147.566 147.566 0 0 1 122.165 58.076 A 170.056 170.056 0 0 1 119.446 61.436 A 117.618 117.618 0 0 1 117.579 63.633 A 95.297 95.297 0 0 1 115.784 65.635 Q 114.026 67.539 112.464 68.76 Q 110.901 69.981 109.925 69.981 Q 108.753 69.981 108.118 69.443 A 2.865 2.865 0 0 1 107.606 68.876 A 3.371 3.371 0 0 1 107.19 68.027 A 6.407 6.407 0 0 1 107.024 67.435 A 7.433 7.433 0 0 1 106.849 66.123 Q 106.8 65.098 106.897 64.219 L 107.386 61.777 L 107.728 60.068 L 108.02 58.604 A 67.659 67.659 0 0 1 108.179 57.835 A 89.496 89.496 0 0 1 108.362 56.992 A 1371.173 1371.173 0 0 0 108.564 56.063 Q 109.401 52.201 109.925 49.668 A 290.755 290.755 0 0 0 110.183 48.405 Q 110.45 47.086 110.639 46.079 A 86.451 86.451 0 0 0 110.804 45.176 Q 111.097 43.516 111.097 42.881 Q 111.097 42.395 111.039 42.167 A 0.574 0.574 0 0 0 110.999 42.051 Q 110.804 41.953 110.218 41.953 A 6.586 6.586 0 0 0 109.965 41.959 Q 109.512 41.976 108.802 42.051 A 14.328 14.328 0 0 0 108.247 42.121 Q 107.491 42.231 106.507 42.441 A 18.266 18.266 0 0 0 106.829 41.933 Q 108.521 39.159 108.118 37.412 A 6.024 6.024 0 0 0 107.83 36.492 A 4.377 4.377 0 0 0 106.311 34.531 A 8.298 8.298 0 0 0 105.589 34.115 Q 104.808 33.715 103.855 33.417 A 15.934 15.934 0 0 0 102.015 32.969 A 5.32 5.32 0 0 0 101.554 32.949 Q 99.427 32.949 96.351 34.531 A 20.767 20.767 0 0 0 95.628 34.921 Q 92.562 36.655 89.417 39.756 Q 85.901 43.223 82.923 48.106 A 33.971 33.971 0 0 0 81.989 49.737 A 36.78 36.78 0 0 0 78.577 58.945 A 37.291 37.291 0 0 0 78.356 59.902 Q 77.708 62.892 77.734 65.281 A 15.199 15.199 0 0 0 77.796 66.514 Q 78.089 69.688 79.163 71.689 A 10.861 10.861 0 0 0 79.222 71.798 Q 79.668 72.607 80.196 73.236 A 6.3 6.3 0 0 0 81.8 74.619 A 8.848 8.848 0 0 0 82.193 74.84 Q 82.779 75.148 83.336 75.322 A 4.668 4.668 0 0 0 84.729 75.547 A 19.729 19.729 0 0 0 85.325 75.498 A 21.21 21.21 0 0 0 90.589 74.277 A 16.331 16.331 0 0 0 91.129 74.058 Q 92.305 73.557 93.543 72.82 A 28.832 28.832 0 0 0 95.96 71.201 A 14.84 14.84 0 0 0 96.687 70.625 Q 99.096 68.594 101.136 65.195 A 26.982 26.982 0 0 0 101.128 65.433 Q 101.084 66.999 101.235 68.245 A 11.028 11.028 0 0 0 101.478 69.59 A 25.662 25.662 0 0 0 101.771 70.67 Q 101.921 71.173 102.075 71.603 A 10.965 10.965 0 0 0 102.405 72.422 Q 102.68 73.017 103.019 73.483 A 4.386 4.386 0 0 0 103.87 74.375 A 5.227 5.227 0 0 0 104.664 74.809 A 6.291 6.291 0 0 0 105.921 75.205 A 7.93 7.93 0 0 0 106.131 75.246 Q 107.21 75.441 108.411 75.352 Q 109.729 75.254 110.999 74.863 A 11.737 11.737 0 0 0 111.946 74.528 A 9.28 9.28 0 0 0 113.245 73.887 A 9.378 9.378 0 0 0 113.649 73.601 Q 114.564 72.919 115.729 71.751 A 41.001 41.001 0 0 0 116.907 70.518 A 87.881 87.881 0 0 0 118.569 68.655 A 106.191 106.191 0 0 0 121.399 65.244 Z M 571.367 59.198 A 284.571 284.571 0 0 0 571.776 58.647 A 222.82 222.82 0 0 0 571.646 59.574 Q 571.356 61.669 571.231 62.925 A 25.023 25.023 0 0 0 571.155 63.828 A 10.391 10.391 0 0 0 571.099 64.916 Q 571.099 65.527 571.166 66.17 A 15.046 15.046 0 0 0 571.448 67.881 A 12.077 12.077 0 0 0 573.157 71.934 A 9.231 9.231 0 0 0 574.403 73.445 A 10.971 10.971 0 0 0 576.526 75.059 A 7.793 7.793 0 0 0 577.118 75.375 Q 578.209 75.898 579.544 76.134 A 13.518 13.518 0 0 0 581.897 76.328 A 4.643 4.643 0 0 0 582.598 76.273 Q 584.004 76.058 585.776 75.011 A 20.286 20.286 0 0 0 587.464 73.887 Q 589.228 72.59 591.047 70.921 A 60.073 60.073 0 0 0 594.3 67.686 A 90.534 90.534 0 0 0 597.925 63.556 A 19.94 19.94 0 0 0 597.953 63.766 A 14.512 14.512 0 0 0 598.645 66.66 A 18.563 18.563 0 0 0 599.872 69.408 A 13.567 13.567 0 0 0 601.917 72.227 A 15.347 15.347 0 0 0 602.768 73.053 A 12.815 12.815 0 0 0 606.458 75.4 Q 607.645 75.889 608.754 76.145 A 10.421 10.421 0 0 0 611.097 76.426 A 18.385 18.385 0 0 0 615.127 75.968 A 23.122 23.122 0 0 0 619.544 74.473 A 39.217 39.217 0 0 0 621.973 73.277 A 44.803 44.803 0 0 0 628.04 69.346 A 60.473 60.473 0 0 0 630.963 66.952 A 857.921 857.921 0 0 1 630.524 67.837 A 597.442 597.442 0 0 1 629.7 69.492 L 628.382 72.129 A 5.515 5.515 0 0 0 628.168 72.609 Q 627.837 73.467 627.991 74.082 Q 628.186 74.863 628.821 75.107 A 1.554 1.554 0 0 0 629.384 75.209 Q 629.802 75.209 630.286 75.01 A 2.413 2.413 0 0 0 630.761 74.746 Q 631.317 74.352 631.8 73.594 Q 632.093 73.203 633.313 71.201 A 13202.869 13202.869 0 0 1 634.129 69.864 Q 635.083 68.299 636.292 66.318 A 1240.234 1240.234 0 0 0 638.111 63.328 A 1526.901 1526.901 0 0 0 640.052 60.117 A 1755.064 1755.064 0 0 0 642.005 56.87 A 1521.982 1521.982 0 0 0 643.86 53.77 Q 644.989 51.877 645.947 50.291 A 539.639 539.639 0 0 1 647.034 48.496 Q 648.102 46.741 648.574 45.94 A 33.435 33.435 0 0 0 648.792 45.566 A 8.863 8.863 0 0 1 649.546 45.792 A 11.579 11.579 0 0 1 650.452 46.152 A 3.771 3.771 0 0 0 650.73 46.263 Q 651.151 46.411 651.651 46.481 A 6.871 6.871 0 0 0 652.601 46.543 Q 653.26 46.543 653.672 46.516 A 5.678 5.678 0 0 0 653.919 46.494 Q 654.358 46.445 654.603 46.445 A 2.484 2.484 0 0 0 655.091 46.397 A 1.729 1.729 0 0 1 655.241 46.374 Q 655.487 46.348 655.921 46.348 A 1.91 1.91 0 0 1 656.27 46.378 A 1.283 1.283 0 0 1 657.19 47.031 A 2.862 2.862 0 0 1 657.464 47.691 A 3.373 3.373 0 0 1 657.581 48.594 A 3.706 3.706 0 0 1 657.58 48.659 Q 657.557 50.008 656.556 51.963 A 66.652 66.652 0 0 1 655.853 53.295 Q 655.011 54.85 653.87 56.797 A 43.962 43.962 0 0 1 653.519 57.484 A 48.924 48.924 0 0 1 652.356 59.58 Q 651.526 60.996 650.794 62.412 A 37.515 37.515 0 0 0 650.355 63.288 A 31.67 31.67 0 0 0 649.524 65.147 A 10.023 10.023 0 0 0 649.133 66.292 A 7.485 7.485 0 0 0 648.89 67.637 A 8.128 8.128 0 0 0 648.872 68.177 Q 648.872 69.412 649.231 70.811 A 9.176 9.176 0 0 0 650.696 73.936 A 8.057 8.057 0 0 0 651.555 74.936 A 9.232 9.232 0 0 0 653.382 76.328 A 6.008 6.008 0 0 0 653.993 76.641 Q 654.808 77.003 655.8 77.167 A 10.9 10.9 0 0 0 657.581 77.305 Q 659.031 77.305 660.566 76.788 A 13.413 13.413 0 0 0 662.708 75.84 A 28.054 28.054 0 0 0 665.058 74.399 A 34.825 34.825 0 0 0 668.079 72.08 A 50.252 50.252 0 0 0 673.206 67.002 A 111.442 111.442 0 0 0 674.689 65.277 A 94.316 94.316 0 0 0 677.649 61.582 A 121.934 121.934 0 0 0 678.201 60.85 Q 679.011 59.767 679.716 58.77 A 71.912 71.912 0 0 0 681.067 56.797 A 256.856 256.856 0 0 0 681.286 56.464 A 193.294 193.294 0 0 0 681.699 55.833 A 200.042 200.042 0 0 0 681.736 55.787 A 319.357 319.357 0 0 0 682.288 55.088 A 142.494 142.494 0 0 0 683.594 53.403 A 177.26 177.26 0 0 0 684.974 51.572 A 150.735 150.735 0 0 0 686.341 49.705 A 129.099 129.099 0 0 0 687.61 47.91 A 191.938 191.938 0 0 0 687.799 47.638 Q 688.87 46.091 689.319 45.371 A 2.579 2.579 0 0 1 689.326 45.384 Q 689.471 45.679 689.695 46.315 A 29.91 29.91 0 0 1 689.856 46.787 A 75.05 75.05 0 0 0 689.878 46.851 A 82.561 82.561 0 0 0 690.589 48.887 A 31.256 31.256 0 0 0 691.028 50.205 A 40.455 40.455 0 0 0 691.565 51.621 A 68.412 68.412 0 0 0 692.322 53.672 A 92.937 92.937 0 0 0 693.226 55.918 A 104.323 104.323 0 0 1 695.032 60.557 A 33.703 33.703 0 0 1 695.694 62.576 A 25.745 25.745 0 0 1 696.253 64.854 A 12.937 12.937 0 0 1 696.33 65.288 Q 696.529 66.53 696.393 67.375 A 3.027 3.027 0 0 1 696.253 67.93 A 4.719 4.719 0 0 1 696.215 68.03 A 3.971 3.971 0 0 1 695.032 69.688 A 7.91 7.91 0 0 1 694.876 69.813 A 7.017 7.017 0 0 1 693.274 70.762 A 5.44 5.44 0 0 1 692.984 70.874 A 4.65 4.65 0 0 1 691.419 71.152 Q 690.969 71.152 690.599 71.06 A 2.194 2.194 0 0 1 689.905 70.762 A 2.061 2.061 0 0 1 689.723 70.595 Q 689.436 70.303 689.118 69.791 A 10.096 10.096 0 0 1 688.831 69.297 A 46.34 46.34 0 0 1 688.586 68.799 Q 688.16 67.92 687.561 66.611 A 21.006 21.006 0 0 1 687.409 66.269 Q 686.686 64.61 685.804 61.875 L 683.753 62.559 A 13.516 13.516 0 0 0 683.673 62.585 Q 683.121 62.773 682.729 62.961 A 4.211 4.211 0 0 0 682.386 63.145 A 31.572 31.572 0 0 0 682.039 63.379 Q 681.875 63.492 681.73 63.595 A 15.466 15.466 0 0 0 681.409 63.828 A 15.718 15.718 0 0 0 680.821 64.384 Q 680.272 64.931 679.944 65.391 A 8.918 8.918 0 0 0 679.613 65.892 Q 679.264 66.459 678.87 67.246 A 1.612 1.612 0 0 0 678.709 67.672 Q 678.567 68.297 678.82 69.196 A 6.853 6.853 0 0 0 679.017 69.785 A 11.627 11.627 0 0 0 679.838 71.484 A 15.615 15.615 0 0 0 680.97 73.154 A 12.736 12.736 0 0 0 681.222 73.471 A 13.554 13.554 0 0 0 684.192 76.133 A 8.576 8.576 0 0 0 684.942 76.58 A 6.78 6.78 0 0 0 688.147 77.402 A 10.716 10.716 0 0 0 689.731 77.286 A 11.284 11.284 0 0 0 693.763 75.84 A 21.61 21.61 0 0 0 698.548 72.08 Q 700.647 69.883 702.063 67.539 A 24.566 24.566 0 0 0 702.092 67.491 Q 703 65.982 703.438 64.757 A 7.52 7.52 0 0 0 703.772 63.535 A 3.252 3.252 0 0 0 703.797 63.379 Q 703.894 62.646 703.692 61.7 A 8.953 8.953 0 0 0 703.479 60.898 A 29.939 29.939 0 0 0 702.918 59.275 A 39.473 39.473 0 0 0 702.21 57.529 A 49.033 49.033 0 0 0 702.012 57.077 A 53.887 53.887 0 0 0 700.452 53.867 A 212.379 212.379 0 0 1 700.21 53.405 A 192.8 192.8 0 0 1 698.597 50.254 A 23.345 23.345 0 0 1 698.057 49.095 A 28.871 28.871 0 0 1 697.327 47.227 A 39.182 39.182 0 0 1 697.135 46.674 Q 696.734 45.497 696.302 44.004 A 24.151 24.151 0 0 1 695.878 42.306 A 30.687 30.687 0 0 1 695.472 39.902 Q 696.479 38.694 697.163 37.785 A 25.32 25.32 0 0 0 697.718 37.022 A 24.732 24.732 0 0 0 698.188 36.321 Q 698.627 35.642 698.89 35.117 A 33.981 33.981 0 0 0 698.925 35.046 Q 699.289 34.314 699.476 33.848 A 1.978 1.978 0 0 0 699.515 33.459 Q 699.515 32.686 698.89 31.943 A 7.277 7.277 0 0 0 697.922 30.999 A 9.969 9.969 0 0 0 696.839 30.234 Q 695.654 29.642 694.245 29.92 A 5.851 5.851 0 0 0 693.323 30.186 Q 691.37 30.918 689.515 32.383 A 18.012 18.012 0 0 0 686.292 35.654 Q 685.395 36.84 684.918 37.836 A 6.364 6.364 0 0 0 684.534 38.828 Q 684.339 39.492 684.339 40.094 A 3.272 3.272 0 0 0 684.778 41.758 A 7.325 7.325 0 0 1 684.851 41.888 Q 685.375 42.839 685.356 43.506 A 1.415 1.415 0 0 1 685.315 43.809 Q 685.236 44.047 684.576 45.026 A 53.948 53.948 0 0 1 684.241 45.518 Q 683.738 46.248 683.182 47.082 A 163.742 163.742 0 0 0 682.093 48.74 A 164.776 164.776 0 0 1 680.662 50.91 A 2.795 2.795 0 0 0 680.433 51.231 A 26.029 26.029 0 0 0 680.388 51.29 Q 679.801 52.077 678.626 53.77 Q 677.939 54.758 677.083 55.886 A 92.845 92.845 0 0 1 675.647 57.725 A 97.7 97.7 0 0 1 674.75 58.829 A 111.846 111.846 0 0 1 671.839 62.217 A 61.875 61.875 0 0 1 670.81 63.34 A 54.646 54.646 0 0 1 667.688 66.416 A 31.927 31.927 0 0 1 665.742 68.051 A 23.995 23.995 0 0 1 663.587 69.541 A 11.224 11.224 0 0 1 662.758 70.002 Q 662.079 70.34 661.443 70.528 A 5.36 5.36 0 0 1 659.925 70.762 Q 657.679 70.762 657.19 69.981 A 3.697 3.697 0 0 1 656.985 69.604 Q 656.816 69.246 656.693 68.809 A 7.481 7.481 0 0 1 656.507 67.93 A 4.981 4.981 0 0 1 656.482 67.434 Q 656.482 65.671 657.679 63.535 A 59.316 59.316 0 0 1 658.875 61.492 A 46.676 46.676 0 0 1 660.413 59.141 A 107.5 107.5 0 0 0 660.7 58.74 Q 661.693 57.344 662.548 56.048 A 66.129 66.129 0 0 0 664.222 53.379 Q 665.784 50.742 665.491 48.301 Q 665.394 47.129 665.052 45.713 A 10.326 10.326 0 0 0 664.026 43.076 A 6.691 6.691 0 0 0 662.269 41.025 A 3.853 3.853 0 0 0 660.742 40.322 A 5.46 5.46 0 0 0 659.534 40.195 Q 658.551 40.195 657.947 40.296 A 3.235 3.235 0 0 0 657.532 40.391 A 3.028 3.028 0 0 1 657.14 40.479 Q 656.491 40.586 655.335 40.586 A 8.234 8.234 0 0 1 654.996 40.579 Q 654.18 40.546 653.772 40.342 A 11.362 11.362 0 0 1 653.473 40.187 Q 653.188 40.034 652.991 39.902 Q 654.065 38.34 654.456 36.387 Q 654.765 34.841 654.707 33.723 A 5.577 5.577 0 0 0 654.651 33.164 A 7.619 7.619 0 0 0 654.303 31.559 A 8.985 8.985 0 0 0 653.333 29.551 Q 652.526 28.287 650.886 27.932 A 6.667 6.667 0 0 0 649.476 27.793 A 3.36 3.36 0 0 0 648.537 27.93 Q 647.983 28.091 647.415 28.439 A 7.182 7.182 0 0 0 646.448 29.16 A 14.927 14.927 0 0 0 645.5 30.067 A 17.177 17.177 0 0 0 643.616 32.432 A 19.873 19.873 0 0 0 641.565 36.387 A 12.514 12.514 0 0 0 641.229 37.386 Q 640.92 38.464 640.942 39.276 A 3.441 3.441 0 0 0 640.979 39.707 Q 641.123 40.783 641.372 41.306 A 1.3 1.3 0 0 0 641.565 41.611 Q 641.858 41.941 642.536 42.573 A 53.431 53.431 0 0 0 643.03 43.027 Q 642.444 44.102 641.175 46.494 Q 639.905 48.887 638.392 51.914 A 1137.77 1137.77 0 0 0 636.841 55.027 A 1329.819 1329.819 0 0 0 636.574 55.565 A 206.023 206.023 0 0 1 635.267 56.992 A 77.803 77.803 0 0 1 628.821 63.193 A 53.055 53.055 0 0 1 627.298 64.454 A 46.157 46.157 0 0 1 621.741 68.272 A 20.524 20.524 0 0 1 621.435 68.446 Q 619.956 69.272 618.527 69.743 A 11.834 11.834 0 0 1 614.808 70.371 A 10.98 10.98 0 0 1 611.731 69.932 A 6.985 6.985 0 0 1 609.046 68.467 A 7.162 7.162 0 0 1 607.972 67.283 A 9.218 9.218 0 0 1 607.093 65.781 Q 606.311 64.121 606.214 61.68 Q 607.038 61.075 608.016 60.394 A 134.254 134.254 0 0 1 609.632 59.287 A 987.321 987.321 0 0 0 611.634 57.932 A 1144.49 1144.49 0 0 0 613.733 56.504 Q 615.686 55.137 617.884 53.477 Q 620.081 51.816 622.034 49.766 Q 623.987 47.715 625.403 45.176 Q 626.819 42.637 627.112 39.609 Q 627.138 39.244 627.131 38.894 A 5.793 5.793 0 0 0 625.647 35.02 A 4.84 4.84 0 0 0 624.025 33.848 Q 623.222 33.481 622.202 33.311 A 11.749 11.749 0 0 0 620.276 33.164 A 12.994 12.994 0 0 0 616.079 33.874 A 16.729 16.729 0 0 0 612.513 35.606 A 27.97 27.97 0 0 0 612.242 35.779 A 29.517 29.517 0 0 0 605.579 41.758 A 38.476 38.476 0 0 0 600.403 49.912 A 30.535 30.535 0 0 0 598.851 53.849 A 22.454 22.454 0 0 0 598.09 57.026 A 96.461 96.461 0 0 1 597.696 57.487 A 111.115 111.115 0 0 1 594.446 61.094 A 93.299 93.299 0 0 1 593.266 62.327 A 80.728 80.728 0 0 1 589.905 65.586 A 35.619 35.619 0 0 1 589.765 65.714 Q 587.593 67.675 585.56 68.857 Q 583.75 69.91 582.411 69.91 A 3.147 3.147 0 0 1 581.995 69.883 A 6.353 6.353 0 0 1 581.32 69.812 A 4.923 4.923 0 0 1 578.87 68.711 A 4.709 4.709 0 0 1 578.13 67.833 Q 577.824 67.374 577.553 66.788 A 12.167 12.167 0 0 1 577.063 65.537 A 6.302 6.302 0 0 1 576.925 65.056 Q 576.392 62.901 576.917 59.141 A 419.51 419.51 0 0 0 579.334 53.452 A 341.544 341.544 0 0 0 581.507 48.106 A 521.548 521.548 0 0 0 582.072 46.673 Q 583.764 42.367 585.022 38.926 A 312.827 312.827 0 0 0 586.585 34.507 A 241.578 241.578 0 0 0 587.952 30.43 A 31.838 31.838 0 0 0 588.357 29.205 A 26.346 26.346 0 0 0 588.88 27.256 A 138.14 138.14 0 0 1 589.612 24.18 Q 590.394 24.18 591.126 24.131 Q 591.858 24.082 592.444 24.082 Q 595.569 24.082 597.913 24.277 A 184.413 184.413 0 0 1 599.316 24.399 Q 599.986 24.46 600.595 24.522 A 100.131 100.131 0 0 1 601.966 24.668 A 35.169 35.169 0 0 1 602.74 24.765 Q 603.961 24.932 604.895 25.156 Q 605.544 25.312 606.124 25.412 A 13.616 13.616 0 0 0 607.093 25.547 A 2.677 2.677 0 0 0 607.161 25.56 Q 607.637 25.642 608.065 25.536 A 2.166 2.166 0 0 0 608.851 25.156 A 3.996 3.996 0 0 0 609.045 25.001 A 3.288 3.288 0 0 0 609.974 23.74 A 4.321 4.321 0 0 0 610.131 23.29 Q 610.273 22.799 610.273 22.325 A 3.143 3.143 0 0 0 610.267 22.129 A 1.486 1.486 0 0 0 610.22 21.833 Q 610.078 21.308 609.534 21.152 A 7.362 7.362 0 0 1 609.509 21.145 Q 608.826 20.947 607.483 20.42 A 17.666 17.666 0 0 0 606.44 20.051 Q 605.866 19.866 605.188 19.681 A 43.619 43.619 0 0 0 603.87 19.346 Q 602.466 19.01 600.7 18.712 A 77.825 77.825 0 0 0 598.45 18.369 Q 596.665 18.122 594.586 18.014 A 65.778 65.778 0 0 0 591.175 17.93 Q 592.151 12.949 592.249 9.727 Q 592.347 6.504 591.858 5.723 A 1.695 1.695 0 0 0 591.483 5.391 Q 591.024 5.09 590.296 4.99 Q 589.222 4.844 588.05 4.99 A 12.73 12.73 0 0 0 587.544 5.064 A 11.079 11.079 0 0 0 585.853 5.479 Q 584.827 5.82 584.534 6.309 Q 583.802 7.334 582.932 9.54 A 46.472 46.472 0 0 0 582.337 11.143 A 80.328 80.328 0 0 0 581.993 12.142 Q 581.475 13.677 580.948 15.429 A 146.912 146.912 0 0 0 579.847 19.297 Q 578.186 19.59 576.478 19.785 A 53.61 53.61 0 0 1 575.614 19.877 A 60.208 60.208 0 0 1 572.913 20.078 A 55.733 55.733 0 0 1 572.66 20.087 Q 571.377 20.131 570.195 20.111 A 38.448 38.448 0 0 1 568.226 20.029 A 121.943 121.943 0 0 1 566.15 19.871 A 98.359 98.359 0 0 1 564.222 19.688 A 1.529 1.529 0 0 0 563.769 19.761 Q 563.56 19.825 563.336 19.947 A 3.813 3.813 0 0 0 562.903 20.225 A 5.02 5.02 0 0 0 561.683 21.494 A 4.153 4.153 0 0 0 561.361 22.066 A 3.131 3.131 0 0 0 561.097 22.959 A 1.305 1.305 0 0 0 561.094 22.979 Q 561.01 23.697 561.78 24.082 A 9.342 9.342 0 0 0 562.17 24.265 Q 563.081 24.669 564.477 25.09 A 42.856 42.856 0 0 0 565.931 25.498 A 21.266 21.266 0 0 0 567.344 25.819 A 23.862 23.862 0 0 0 571.839 26.231 A 22.414 22.414 0 0 0 573.279 26.182 A 30.303 30.303 0 0 0 574.866 26.035 L 578.186 25.645 Q 576.819 31.309 575.599 37.412 A 813.535 813.535 0 0 0 574.439 43.32 A 659.555 659.555 0 0 0 573.401 48.838 A 358.467 358.467 0 0 0 573.134 50.31 A 288.403 288.403 0 0 0 573.011 50.999 A 55.558 55.558 0 0 1 572.79 51.288 Q 572.226 52.02 571.302 53.184 Q 570.56 54.117 569.71 55.206 A 452.476 452.476 0 0 0 568.323 56.992 A 147.566 147.566 0 0 1 567.478 58.076 A 170.056 170.056 0 0 1 564.759 61.436 A 117.618 117.618 0 0 1 562.891 63.633 A 95.297 95.297 0 0 1 561.097 65.635 Q 559.339 67.539 557.776 68.76 Q 556.214 69.981 555.237 69.981 Q 554.065 69.981 553.431 69.443 A 2.865 2.865 0 0 1 552.918 68.876 A 3.371 3.371 0 0 1 552.503 68.027 A 6.407 6.407 0 0 1 552.337 67.435 A 7.433 7.433 0 0 1 552.161 66.123 Q 552.112 65.098 552.21 64.219 L 552.698 61.777 L 553.04 60.068 L 553.333 58.604 A 67.659 67.659 0 0 1 553.492 57.835 A 89.496 89.496 0 0 1 553.675 56.992 A 1371.173 1371.173 0 0 0 553.876 56.063 Q 554.713 52.201 555.237 49.668 A 290.755 290.755 0 0 0 555.496 48.405 Q 555.763 47.086 555.951 46.079 A 86.451 86.451 0 0 0 556.116 45.176 Q 556.409 43.516 556.409 42.881 Q 556.409 42.395 556.352 42.167 A 0.574 0.574 0 0 0 556.311 42.051 Q 556.116 41.953 555.53 41.953 A 6.586 6.586 0 0 0 555.277 41.959 Q 554.825 41.976 554.114 42.051 A 14.328 14.328 0 0 0 553.56 42.121 Q 552.803 42.231 551.819 42.441 A 18.266 18.266 0 0 0 552.141 41.933 Q 553.834 39.159 553.431 37.412 A 6.024 6.024 0 0 0 553.142 36.492 A 4.377 4.377 0 0 0 551.624 34.531 A 8.298 8.298 0 0 0 550.902 34.115 Q 550.121 33.715 549.167 33.417 A 15.934 15.934 0 0 0 547.327 32.969 A 5.32 5.32 0 0 0 546.866 32.949 Q 544.739 32.949 541.663 34.531 A 20.767 20.767 0 0 0 540.941 34.921 Q 537.874 36.655 534.729 39.756 Q 531.214 43.223 528.235 48.106 A 33.971 33.971 0 0 0 527.301 49.737 A 36.78 36.78 0 0 0 523.89 58.945 A 37.291 37.291 0 0 0 523.669 59.902 Q 523.021 62.892 523.047 65.281 A 15.199 15.199 0 0 0 523.108 66.514 Q 523.401 69.688 524.476 71.689 A 10.861 10.861 0 0 0 524.535 71.798 Q 524.981 72.607 525.509 73.236 A 6.3 6.3 0 0 0 527.112 74.619 A 8.848 8.848 0 0 0 527.506 74.84 Q 528.092 75.148 528.649 75.322 A 4.668 4.668 0 0 0 530.042 75.547 A 19.729 19.729 0 0 0 530.637 75.498 A 21.21 21.21 0 0 0 535.901 74.277 A 16.331 16.331 0 0 0 536.441 74.058 Q 537.618 73.557 538.856 72.82 A 28.832 28.832 0 0 0 541.272 71.201 A 14.84 14.84 0 0 0 542 70.625 Q 544.409 68.594 546.448 65.195 A 26.982 26.982 0 0 0 546.44 65.433 Q 546.396 66.999 546.547 68.245 A 11.028 11.028 0 0 0 546.79 69.59 A 25.662 25.662 0 0 0 547.084 70.67 Q 547.233 71.173 547.388 71.603 A 10.965 10.965 0 0 0 547.718 72.422 Q 547.992 73.017 548.331 73.483 A 4.386 4.386 0 0 0 549.183 74.375 A 5.227 5.227 0 0 0 549.976 74.809 A 6.291 6.291 0 0 0 551.233 75.205 A 7.93 7.93 0 0 0 551.444 75.246 Q 552.523 75.441 553.724 75.352 Q 555.042 75.254 556.311 74.863 A 11.737 11.737 0 0 0 557.259 74.528 A 9.28 9.28 0 0 0 558.558 73.887 A 9.378 9.378 0 0 0 558.961 73.601 Q 559.876 72.919 561.042 71.751 A 41.001 41.001 0 0 0 562.22 70.518 A 87.881 87.881 0 0 0 563.881 68.655 A 106.191 106.191 0 0 0 566.712 65.244 A 228.204 228.204 0 0 0 571.155 59.482 A 351.279 351.279 0 0 0 571.367 59.198 Z M 7.908 91.564 A 6.464 6.464 0 0 0 11.585 92.734 A 6.839 6.839 0 0 0 12.807 92.623 Q 15.037 92.219 17.298 90.342 A 23.07 23.07 0 0 0 17.904 89.82 Q 19.216 88.651 20.508 87.156 A 40.413 40.413 0 0 0 22.962 83.994 A 64.737 64.737 0 0 0 25.361 80.316 A 82.881 82.881 0 0 0 28.333 74.961 Q 30.921 69.883 33.167 64.414 A 92.44 92.44 0 0 0 33.143 66.563 Q 33.143 67.798 33.173 69.096 A 128.938 128.938 0 0 0 33.362 73.594 A 57.681 57.681 0 0 0 33.622 76.645 A 48.867 48.867 0 0 0 34.729 82.92 A 30.085 30.085 0 0 0 34.868 83.457 Q 35.364 85.319 36.048 86.899 A 17.675 17.675 0 0 0 37.854 90.147 A 8.218 8.218 0 0 0 38.46 90.902 A 6.283 6.283 0 0 0 43.323 93.027 A 7.511 7.511 0 0 0 45.472 92.702 Q 46.672 92.345 47.916 91.596 A 16.784 16.784 0 0 0 50.11 90 Q 52.338 88.108 54.566 85.262 A 53.42 53.42 0 0 0 57.239 81.504 A 69.454 69.454 0 0 0 57.712 80.769 Q 59.363 78.165 60.971 75.128 A 115.192 115.192 0 0 0 64.173 68.564 A 122.478 122.478 0 0 0 66.61 62.755 A 149.184 149.184 0 0 0 70.276 52.158 A 164.495 164.495 0 0 0 71.592 47.626 A 185.858 185.858 0 0 0 74.915 33.262 A 180.384 180.384 0 0 0 77.601 12.949 A 49.91 49.91 0 0 0 77.603 12.922 Q 77.731 11.178 77.731 9.52 A 41.266 41.266 0 0 0 77.698 7.871 A 64.282 64.282 0 0 0 77.356 3.672 Q 77.112 1.523 76.526 0.156 Q 75.843 -0.039 75.061 0.01 A 25.336 25.336 0 0 0 73.499 0.156 A 13.985 13.985 0 0 0 73.066 0.211 A 12.132 12.132 0 0 0 71.839 0.449 A 22.694 22.694 0 0 0 70.914 0.683 A 18.647 18.647 0 0 0 69.495 1.133 Q 68.287 1.517 67.356 2.025 A 7.646 7.646 0 0 0 66.077 2.891 A 38.624 38.624 0 0 1 66.736 6.309 A 51.486 51.486 0 0 1 67.151 10.117 A 116.918 116.918 0 0 1 67.33 13.051 A 95.906 95.906 0 0 1 67.444 17.637 Q 67.444 21.738 67.151 25.938 Q 66.761 31.016 65.589 37.314 Q 64.417 43.613 62.61 50.107 A 185.051 185.051 0 0 1 58.606 62.754 A 127.683 127.683 0 0 1 56.373 68.577 A 95.218 95.218 0 0 1 54.065 73.74 A 58.826 58.826 0 0 1 52.941 75.944 Q 52.032 77.633 51.117 79.039 A 28.468 28.468 0 0 1 49.329 81.504 Q 47.871 83.289 46.504 83.987 A 3.76 3.76 0 0 1 44.788 84.434 A 2.121 2.121 0 0 1 43.839 84.209 Q 42.956 83.774 42.217 82.496 A 10.547 10.547 0 0 1 41.614 81.26 A 14.419 14.419 0 0 1 41.458 80.866 Q 40.659 78.773 40.169 75.64 A 54.002 54.002 0 0 1 39.759 72.275 A 70.367 70.367 0 0 1 39.526 68.715 Q 39.335 64.104 39.612 58.311 A 105.797 105.797 0 0 1 39.639 57.783 Q 39.849 53.812 40.379 49.395 A 175.504 175.504 0 0 1 41.761 40.098 A 26855.823 26855.823 0 0 1 42.304 38.172 A 30613.853 30613.853 0 0 1 44.007 32.139 Q 45.179 27.988 46.106 23.936 A 243.064 243.064 0 0 0 46.973 20.005 A 198.282 198.282 0 0 0 47.718 16.318 Q 48.145 14.091 48.382 12.263 A 39.807 39.807 0 0 0 48.597 10.215 A 11.618 11.618 0 0 0 48.603 10.076 Q 48.673 8.22 48.108 7.09 A 2.683 2.683 0 0 0 48.038 6.958 Q 47.651 6.28 46.968 6.044 A 2.474 2.474 0 0 0 46.155 5.918 A 3.66 3.66 0 0 0 45.469 6.021 Q 44.27 6.314 42.841 7.41 A 16.501 16.501 0 0 0 41.565 8.506 A 13.085 13.085 0 0 0 39.827 10.556 Q 39.005 11.738 38.263 13.245 A 32.156 32.156 0 0 0 36.976 16.27 A 33.19 33.19 0 0 0 36.272 18.488 A 40.647 40.647 0 0 0 35.413 22.275 Q 34.827 25.547 34.485 28.916 A 93.401 93.401 0 0 0 34.046 35.557 A 226.221 226.221 0 0 0 33.973 38.743 A 191.599 191.599 0 0 0 33.948 41.758 A 935.085 935.085 0 0 1 33.118 44.236 A 1276.713 1276.713 0 0 1 32.19 46.982 A 624.099 624.099 0 0 1 30.188 52.793 Q 29.163 55.723 28.138 58.506 A 315.842 315.842 0 0 1 27.149 61.155 A 231.757 231.757 0 0 1 26.233 63.535 Q 24.769 67.051 23.108 70.664 A 86.728 86.728 0 0 1 21.646 73.695 A 68.36 68.36 0 0 1 19.739 77.207 Q 18.03 80.137 16.37 81.992 A 10.743 10.743 0 0 1 16.169 82.211 Q 15.265 83.167 14.419 83.565 A 2.749 2.749 0 0 1 13.245 83.848 A 3.013 3.013 0 0 1 11.352 83.17 Q 9.656 81.847 8.558 77.939 A 25.158 25.158 0 0 1 7.915 74.844 Q 7.249 70.36 7.495 63.597 A 125.565 125.565 0 0 1 7.679 60.02 A 92.056 92.056 0 0 1 8.284 54.648 A 115.07 115.07 0 0 1 9.583 47.275 A 182.442 182.442 0 0 1 12.903 33.897 A 207.683 207.683 0 0 1 13.871 30.646 A 180.266 180.266 0 0 1 16.956 21.445 Q 19.104 15.586 21.058 11.484 Q 21.936 9.434 23.011 7.676 Q 23.89 6.113 24.915 4.697 Q 25.94 3.281 27.015 2.598 A 3.895 3.895 0 0 0 26.465 2.293 A 4.761 4.761 0 0 0 25.647 2.012 Q 24.866 1.816 24.085 1.719 A 15.115 15.115 0 0 0 23.583 1.672 A 17.538 17.538 0 0 0 22.229 1.621 A 12.126 12.126 0 0 0 21.292 1.658 A 14.836 14.836 0 0 0 19.739 1.865 A 18.842 18.842 0 0 0 18.895 2.041 A 15.715 15.715 0 0 0 17.298 2.5 A 10.605 10.605 0 0 0 16.356 2.877 A 8.019 8.019 0 0 0 15.345 3.428 A 7.275 7.275 0 0 0 15.193 3.529 Q 14.743 3.836 14.472 4.127 A 1.977 1.977 0 0 0 14.222 4.453 A 3.458 3.458 0 0 0 14.17 4.562 Q 13.977 4.987 13.421 6.377 A 263.174 263.174 0 0 0 13.099 7.188 A 135.929 135.929 0 0 0 12.897 7.699 Q 12.266 9.312 11.432 11.555 A 459.896 459.896 0 0 0 10.755 13.389 A 226.717 226.717 0 0 0 10.352 14.496 Q 9.105 17.947 7.679 22.227 A 149.107 149.107 0 0 0 6.76 25.078 A 173.426 173.426 0 0 0 4.554 32.822 A 190.804 190.804 0 0 0 1.917 44.443 Q 0.745 50.449 0.354 56.211 Q -0.329 64.902 0.306 71.689 A 78.039 78.039 0 0 0 0.632 74.605 Q 1.277 79.509 2.454 83.115 A 28.157 28.157 0 0 0 3.152 85.026 Q 3.767 86.533 4.498 87.761 A 13.618 13.618 0 0 0 6.36 90.244 A 9.617 9.617 0 0 0 7.908 91.564 Z M 453.221 91.564 A 6.464 6.464 0 0 0 456.897 92.734 A 6.839 6.839 0 0 0 458.119 92.623 Q 460.35 92.219 462.61 90.342 A 23.07 23.07 0 0 0 463.217 89.82 Q 464.529 88.651 465.82 87.156 A 40.413 40.413 0 0 0 468.274 83.994 A 64.737 64.737 0 0 0 470.674 80.316 A 82.881 82.881 0 0 0 473.645 74.961 Q 476.233 69.883 478.479 64.414 A 92.44 92.44 0 0 0 478.455 66.563 Q 478.455 67.798 478.486 69.096 A 128.938 128.938 0 0 0 478.675 73.594 A 57.681 57.681 0 0 0 478.934 76.645 A 48.867 48.867 0 0 0 480.042 82.92 A 30.085 30.085 0 0 0 480.18 83.457 Q 480.677 85.319 481.36 86.899 A 17.675 17.675 0 0 0 483.167 90.147 A 8.218 8.218 0 0 0 483.773 90.902 A 6.283 6.283 0 0 0 488.636 93.027 A 7.511 7.511 0 0 0 490.784 92.702 Q 491.984 92.345 493.228 91.596 A 16.784 16.784 0 0 0 495.423 90 Q 497.651 88.108 499.878 85.262 A 53.42 53.42 0 0 0 502.552 81.504 A 69.454 69.454 0 0 0 503.024 80.769 Q 504.675 78.165 506.284 75.128 A 115.192 115.192 0 0 0 509.485 68.564 A 122.478 122.478 0 0 0 511.923 62.755 A 149.184 149.184 0 0 0 515.589 52.158 A 164.495 164.495 0 0 0 516.904 47.626 A 185.858 185.858 0 0 0 520.228 33.262 A 180.384 180.384 0 0 0 522.913 12.949 A 49.91 49.91 0 0 0 522.915 12.922 Q 523.043 11.178 523.043 9.52 A 41.266 41.266 0 0 0 523.011 7.871 A 64.282 64.282 0 0 0 522.669 3.672 Q 522.425 1.523 521.839 0.156 Q 521.155 -0.039 520.374 0.01 A 25.336 25.336 0 0 0 518.811 0.156 A 13.985 13.985 0 0 0 518.378 0.211 A 12.132 12.132 0 0 0 517.151 0.449 A 22.694 22.694 0 0 0 516.227 0.683 A 18.647 18.647 0 0 0 514.808 1.133 Q 513.599 1.517 512.669 2.025 A 7.646 7.646 0 0 0 511.39 2.891 A 38.624 38.624 0 0 1 512.049 6.309 A 51.486 51.486 0 0 1 512.464 10.117 A 116.918 116.918 0 0 1 512.642 13.051 A 95.906 95.906 0 0 1 512.757 17.637 Q 512.757 21.738 512.464 25.938 Q 512.073 31.016 510.901 37.314 Q 509.729 43.613 507.923 50.107 A 185.051 185.051 0 0 1 503.919 62.754 A 127.683 127.683 0 0 1 501.685 68.577 A 95.218 95.218 0 0 1 499.378 73.74 A 58.826 58.826 0 0 1 498.254 75.944 Q 497.345 77.633 496.429 79.039 A 28.468 28.468 0 0 1 494.642 81.504 Q 493.183 83.289 491.816 83.987 A 3.76 3.76 0 0 1 490.101 84.434 A 2.121 2.121 0 0 1 489.151 84.209 Q 488.269 83.774 487.529 82.496 A 10.547 10.547 0 0 1 486.927 81.26 A 14.419 14.419 0 0 1 486.77 80.866 Q 485.972 78.773 485.482 75.64 A 54.002 54.002 0 0 1 485.071 72.275 A 70.367 70.367 0 0 1 484.838 68.715 Q 484.647 64.104 484.925 58.311 A 105.797 105.797 0 0 1 484.951 57.783 Q 485.161 53.812 485.691 49.395 A 175.504 175.504 0 0 1 487.073 40.098 A 26855.823 26855.823 0 0 1 487.616 38.172 A 30613.853 30613.853 0 0 1 489.319 32.139 Q 490.491 27.988 491.419 23.936 A 243.064 243.064 0 0 0 492.286 20.005 A 198.282 198.282 0 0 0 493.03 16.318 Q 493.457 14.091 493.694 12.263 A 39.807 39.807 0 0 0 493.909 10.215 A 11.618 11.618 0 0 0 493.915 10.076 Q 493.986 8.22 493.421 7.09 A 2.683 2.683 0 0 0 493.351 6.958 Q 492.963 6.28 492.281 6.044 A 2.474 2.474 0 0 0 491.468 5.918 A 3.66 3.66 0 0 0 490.782 6.021 Q 489.582 6.314 488.154 7.41 A 16.501 16.501 0 0 0 486.878 8.506 A 13.085 13.085 0 0 0 485.139 10.556 Q 484.317 11.738 483.576 13.245 A 32.156 32.156 0 0 0 482.288 16.27 A 33.19 33.19 0 0 0 481.585 18.488 A 40.647 40.647 0 0 0 480.726 22.275 Q 480.14 25.547 479.798 28.916 A 93.401 93.401 0 0 0 479.358 35.557 A 226.221 226.221 0 0 0 479.285 38.743 A 191.599 191.599 0 0 0 479.261 41.758 A 935.085 935.085 0 0 1 478.431 44.236 A 1276.713 1276.713 0 0 1 477.503 46.982 A 624.099 624.099 0 0 1 475.501 52.793 Q 474.476 55.723 473.45 58.506 A 315.842 315.842 0 0 1 472.461 61.155 A 231.757 231.757 0 0 1 471.546 63.535 Q 470.081 67.051 468.421 70.664 A 86.728 86.728 0 0 1 466.959 73.695 A 68.36 68.36 0 0 1 465.052 77.207 Q 463.343 80.137 461.683 81.992 A 10.743 10.743 0 0 1 461.482 82.211 Q 460.577 83.167 459.732 83.565 A 2.749 2.749 0 0 1 458.558 83.848 A 3.013 3.013 0 0 1 456.664 83.17 Q 454.968 81.847 453.87 77.939 A 25.158 25.158 0 0 1 453.227 74.844 Q 452.561 70.36 452.808 63.597 A 125.565 125.565 0 0 1 452.991 60.02 A 92.056 92.056 0 0 1 453.596 54.648 A 115.07 115.07 0 0 1 454.895 47.275 A 182.442 182.442 0 0 1 458.216 33.897 A 207.683 207.683 0 0 1 459.183 30.646 A 180.266 180.266 0 0 1 462.269 21.445 Q 464.417 15.586 466.37 11.484 Q 467.249 9.434 468.323 7.676 Q 469.202 6.113 470.228 4.697 Q 471.253 3.281 472.327 2.598 A 3.895 3.895 0 0 0 471.777 2.293 A 4.761 4.761 0 0 0 470.96 2.012 Q 470.179 1.816 469.397 1.719 A 15.115 15.115 0 0 0 468.895 1.672 A 17.538 17.538 0 0 0 467.542 1.621 A 12.126 12.126 0 0 0 466.604 1.658 A 14.836 14.836 0 0 0 465.052 1.865 A 18.842 18.842 0 0 0 464.208 2.041 A 15.715 15.715 0 0 0 462.61 2.5 A 10.605 10.605 0 0 0 461.668 2.877 A 8.019 8.019 0 0 0 460.657 3.428 A 7.275 7.275 0 0 0 460.505 3.529 Q 460.055 3.836 459.784 4.127 A 1.977 1.977 0 0 0 459.534 4.453 A 3.458 3.458 0 0 0 459.483 4.562 Q 459.289 4.987 458.733 6.377 A 263.174 263.174 0 0 0 458.411 7.188 A 135.929 135.929 0 0 0 458.21 7.699 Q 457.579 9.312 456.745 11.555 A 459.896 459.896 0 0 0 456.067 13.389 A 226.717 226.717 0 0 0 455.664 14.496 Q 454.418 17.947 452.991 22.227 A 149.107 149.107 0 0 0 452.073 25.078 A 173.426 173.426 0 0 0 449.866 32.822 A 190.804 190.804 0 0 0 447.229 44.443 Q 446.058 50.449 445.667 56.211 Q 444.983 64.902 445.618 71.689 A 78.039 78.039 0 0 0 445.944 74.605 Q 446.59 79.509 447.767 83.115 A 28.157 28.157 0 0 0 448.464 85.026 Q 449.08 86.533 449.811 87.761 A 13.618 13.618 0 0 0 451.673 90.244 A 9.617 9.617 0 0 0 453.221 91.564 Z M 194.3 56.699 A 149.341 149.341 0 0 0 195.032 52.988 A 61.352 61.352 0 0 1 195.742 49.666 A 67.626 67.626 0 0 1 195.862 49.18 Q 195.669 49.277 195.523 49.373 A 2.205 2.205 0 0 0 195.52 49.375 A 2.712 2.712 0 0 1 195.362 49.473 Q 195.276 49.522 195.179 49.57 A 3.568 3.568 0 0 1 194.903 49.683 Q 194.366 49.875 194.033 49.76 A 0.648 0.648 0 0 1 193.714 49.522 Q 193.358 49.033 193.326 48.018 A 6.533 6.533 0 0 1 193.323 47.813 Q 193.323 47.227 193.226 45.713 A 15.162 15.162 0 0 0 192.887 43.387 A 17.616 17.616 0 0 0 192.688 42.588 A 9.257 9.257 0 0 0 191.945 40.684 A 7.971 7.971 0 0 0 191.37 39.756 A 2.788 2.788 0 0 0 189.355 38.559 A 3.662 3.662 0 0 0 188.929 38.535 A 4.976 4.976 0 0 0 186.802 39.039 Q 186.05 39.392 185.288 39.992 A 11.717 11.717 0 0 0 184.339 40.83 A 27.108 27.108 0 0 0 181.795 43.721 A 34.719 34.719 0 0 0 179.944 46.397 A 37.536 37.536 0 0 0 176.526 53.379 A 31.561 31.561 0 0 0 175.609 56.265 Q 175.229 57.713 175.062 59.019 A 16.614 16.614 0 0 0 174.964 60.02 A 27.972 27.972 0 0 0 174.941 60.867 Q 174.899 64.533 175.922 66.404 A 4.712 4.712 0 0 0 176.136 66.758 Q 177.49 68.789 179.801 68.808 A 5.324 5.324 0 0 0 179.847 68.809 A 5.353 5.353 0 0 0 181.45 68.547 Q 182.523 68.21 183.704 67.441 A 25.622 25.622 0 0 0 186.545 65.285 A 30.334 30.334 0 0 0 187.806 64.121 A 53.009 53.009 0 0 0 191.517 60.117 Q 193.14 58.169 194.191 56.837 A 81.956 81.956 0 0 0 194.3 56.699 Z M 382.288 68.809 A 7.423 7.423 0 0 0 386.145 67.734 Q 387.952 66.66 389.417 65.244 A 19.475 19.475 0 0 0 390.91 63.636 A 15.638 15.638 0 0 0 391.858 62.363 A 64.567 64.567 0 0 0 392.316 61.668 Q 392.957 60.679 393.323 60.02 Q 393.714 59.141 394.251 57.676 A 22.182 22.182 0 0 0 394.874 55.709 A 18.829 18.829 0 0 0 395.081 54.844 A 12.26 12.26 0 0 0 395.261 53.792 Q 395.354 53.045 395.325 52.402 Q 395.303 51.924 395.156 51.639 A 0.721 0.721 0 0 0 394.593 51.231 A 1.112 1.112 0 0 1 393.932 50.854 Q 393.802 50.708 393.695 50.508 A 2.348 2.348 0 0 1 393.665 50.449 A 6.08 6.08 0 0 1 393.327 49.618 A 7.799 7.799 0 0 1 393.128 48.887 Q 392.933 48.008 392.884 47.129 Q 392.842 46.374 392.764 45.763 A 13.284 13.284 0 0 0 392.737 45.566 A 20.396 20.396 0 0 0 392.409 43.791 Q 391.992 42.018 391.319 40.94 A 5.028 5.028 0 0 0 391.077 40.586 A 5.12 5.12 0 0 0 390.355 39.796 Q 389.865 39.367 389.329 39.177 A 2.628 2.628 0 0 0 388.44 39.023 A 6.279 6.279 0 0 0 385.234 39.926 A 8.963 8.963 0 0 0 383.802 40.977 A 16.927 16.927 0 0 0 381.424 43.61 A 22.35 22.35 0 0 0 379.895 46.006 A 28.946 28.946 0 0 0 377.499 51.726 A 32.775 32.775 0 0 0 377.21 52.744 A 29.438 29.438 0 0 0 376.395 56.972 A 24.164 24.164 0 0 0 376.233 59.727 A 23.422 23.422 0 0 0 376.369 62.328 Q 376.632 64.674 377.405 66.318 A 4.043 4.043 0 0 0 380.037 68.514 Q 381.012 68.809 382.288 68.809 Z M 100.745 58.945 Q 101.233 56.992 101.917 54.356 A 95.919 95.919 0 0 0 102.832 50.51 A 83.754 83.754 0 0 0 103.089 49.277 Q 103.553 46.958 103.796 45.387 A 47.197 47.197 0 0 0 103.821 45.225 A 12.147 12.147 0 0 0 103.862 44.931 Q 104.027 43.628 103.678 43.71 A 0.21 0.21 0 0 0 103.675 43.711 A 7.671 7.671 0 0 0 103.162 43.833 Q 102.898 43.905 102.61 44.001 A 12.243 12.243 0 0 0 102.601 44.004 A 3.552 3.552 0 0 1 102.194 44.137 Q 101.983 44.192 101.737 44.236 A 8.021 8.021 0 0 1 101.331 44.297 Q 100.55 44.395 99.769 44.59 A 15.075 15.075 0 0 0 100.195 43.666 Q 100.596 42.707 100.696 42.002 A 10.215 10.215 0 0 0 100.75 41.563 Q 100.821 40.845 100.745 40.391 Q 100.647 39.707 100.354 39.316 A 1.088 1.088 0 0 0 99.675 39.074 Q 98.571 39.043 96.595 40.732 A 14.973 14.973 0 0 0 95.018 42.328 Q 93.433 44.165 91.602 47.139 A 72.937 72.937 0 0 0 90.394 49.18 Q 88.929 51.719 88.05 54.6 A 38.243 38.243 0 0 0 87.231 57.732 A 29.982 29.982 0 0 0 86.829 60.02 A 25.688 25.688 0 0 0 86.666 61.571 Q 86.567 62.926 86.648 64.067 A 12.813 12.813 0 0 0 86.683 64.463 A 10.992 10.992 0 0 0 86.796 65.283 Q 86.935 66.058 87.167 66.522 A 1.64 1.64 0 0 0 87.464 66.953 A 3.758 3.758 0 0 0 88.361 67.628 Q 89.028 67.981 89.787 67.981 A 3.315 3.315 0 0 0 89.905 67.979 A 6.046 6.046 0 0 0 91.721 67.62 A 7.782 7.782 0 0 0 92.688 67.197 A 14.761 14.761 0 0 0 94.458 66.11 A 18.332 18.332 0 0 0 95.52 65.293 A 23.278 23.278 0 0 0 97.591 63.363 A 20.675 20.675 0 0 0 98.06 62.852 Q 99.183 61.582 99.915 60.508 A 13.713 13.713 0 0 0 100.223 60.036 Q 100.638 59.371 100.732 59.001 A 1.097 1.097 0 0 0 100.745 58.945 Z M 546.058 58.945 Q 546.546 56.992 547.229 54.356 A 95.919 95.919 0 0 0 548.145 50.51 A 83.754 83.754 0 0 0 548.401 49.277 Q 548.865 46.958 549.109 45.387 A 47.197 47.197 0 0 0 549.134 45.225 A 12.147 12.147 0 0 0 549.175 44.931 Q 549.34 43.628 548.99 43.71 A 0.21 0.21 0 0 0 548.987 43.711 A 7.671 7.671 0 0 0 548.475 43.833 Q 548.21 43.905 547.922 44.001 A 12.243 12.243 0 0 0 547.913 44.004 A 3.552 3.552 0 0 1 547.506 44.137 Q 547.296 44.192 547.049 44.236 A 8.021 8.021 0 0 1 546.644 44.297 Q 545.862 44.395 545.081 44.59 A 15.075 15.075 0 0 0 545.507 43.666 Q 545.908 42.707 546.009 42.002 A 10.215 10.215 0 0 0 546.062 41.563 Q 546.133 40.845 546.058 40.391 Q 545.96 39.707 545.667 39.316 A 1.088 1.088 0 0 0 544.988 39.074 Q 543.884 39.043 541.907 40.732 A 14.973 14.973 0 0 0 540.331 42.328 Q 538.745 44.165 536.914 47.139 A 72.937 72.937 0 0 0 535.706 49.18 Q 534.241 51.719 533.362 54.6 A 38.243 38.243 0 0 0 532.543 57.732 A 29.982 29.982 0 0 0 532.142 60.02 A 25.688 25.688 0 0 0 531.978 61.571 Q 531.879 62.926 531.961 64.067 A 12.813 12.813 0 0 0 531.995 64.463 A 10.992 10.992 0 0 0 532.108 65.283 Q 532.248 66.058 532.479 66.522 A 1.64 1.64 0 0 0 532.776 66.953 A 3.758 3.758 0 0 0 533.673 67.628 Q 534.34 67.981 535.099 67.981 A 3.315 3.315 0 0 0 535.218 67.979 A 6.046 6.046 0 0 0 537.033 67.62 A 7.782 7.782 0 0 0 538.001 67.197 A 14.761 14.761 0 0 0 539.771 66.11 A 18.332 18.332 0 0 0 540.833 65.293 A 23.278 23.278 0 0 0 542.904 63.363 A 20.675 20.675 0 0 0 543.372 62.852 Q 544.495 61.582 545.228 60.508 A 13.713 13.713 0 0 0 545.536 60.036 Q 545.95 59.371 546.045 59.001 A 1.097 1.097 0 0 0 546.058 58.945 Z M 377.796 114.121 A 2.589 2.589 0 0 0 379.615 113.355 Q 380.021 112.973 380.378 112.4 A 8.376 8.376 0 0 0 380.97 111.24 Q 382.19 108.359 383.558 103.379 A 335.33 335.33 0 0 0 383.719 102.729 Q 383.985 101.658 384.388 100.01 A 315.883 315.883 0 0 1 384.895 97.966 Q 385.245 96.574 385.657 94.981 A 304.369 304.369 0 0 0 386.402 92.039 A 375.187 375.187 0 0 0 387.171 88.877 Q 387.952 85.606 388.831 82.285 Q 388.05 82.969 387.22 83.701 Q 386.39 84.434 385.511 85.41 Q 383.362 87.461 381.36 89.365 A 31.455 31.455 0 0 0 377.845 93.304 A 29.178 29.178 0 0 0 377.796 93.369 A 18.693 18.693 0 0 0 375.306 97.91 A 13.717 13.717 0 0 0 374.582 100.725 Q 374.378 102.064 374.378 103.574 Q 374.378 106.797 374.622 108.848 Q 374.866 110.898 375.306 112.07 Q 375.745 113.242 376.38 113.682 A 2.431 2.431 0 0 0 377.796 114.121 Z M 236.585 38.731 Q 235.413 38.731 233.802 39.902 A 11.218 11.218 0 0 0 232.401 41.124 Q 231.758 41.779 231.124 42.602 A 21.35 21.35 0 0 0 230.628 43.272 A 23.96 23.96 0 0 0 229.206 45.546 Q 228.547 46.736 227.927 48.122 A 40.985 40.985 0 0 0 227.698 48.643 A 27.789 27.789 0 0 0 226.392 52.449 A 36.781 36.781 0 0 0 225.647 55.918 A 61.721 61.721 0 0 1 227.189 54.8 A 73.861 73.861 0 0 1 228.186 54.111 A 48.591 48.591 0 0 0 230.921 52.109 A 48.702 48.702 0 0 0 233.19 50.265 Q 235.613 48.162 236.78 46.445 A 17.005 17.005 0 0 0 237.637 45.056 Q 238.434 43.6 238.611 42.433 A 4.708 4.708 0 0 0 238.636 42.246 A 9.293 9.293 0 0 0 238.672 41.798 Q 238.733 40.732 238.495 40.057 A 2.011 2.011 0 0 0 238.245 39.561 A 1.868 1.868 0 0 0 236.893 38.749 A 2.523 2.523 0 0 0 236.585 38.731 Z M 617.542 38.731 Q 616.37 38.731 614.759 39.902 A 11.218 11.218 0 0 0 613.358 41.124 Q 612.715 41.779 612.081 42.602 A 21.35 21.35 0 0 0 611.585 43.272 A 23.96 23.96 0 0 0 610.163 45.546 Q 609.504 46.736 608.884 48.122 A 40.985 40.985 0 0 0 608.655 48.643 A 27.789 27.789 0 0 0 607.349 52.449 A 36.781 36.781 0 0 0 606.604 55.918 A 61.721 61.721 0 0 1 608.146 54.8 A 73.861 73.861 0 0 1 609.144 54.111 A 48.591 48.591 0 0 0 611.878 52.109 A 48.702 48.702 0 0 0 614.147 50.265 Q 616.57 48.162 617.737 46.445 A 17.005 17.005 0 0 0 618.594 45.056 Q 619.391 43.6 619.568 42.433 A 4.708 4.708 0 0 0 619.593 42.246 A 9.293 9.293 0 0 0 619.629 41.798 Q 619.69 40.732 619.452 40.057 A 2.011 2.011 0 0 0 619.202 39.561 A 1.868 1.868 0 0 0 617.85 38.749 A 2.523 2.523 0 0 0 617.542 38.731 Z M 316.107 17.854 A 5.214 5.214 0 0 0 316.663 16.563 A 5.72 5.72 0 0 0 316.851 15.672 Q 316.935 15.042 316.907 14.316 Q 316.858 13.047 316.468 12.022 A 4.829 4.829 0 0 0 316.236 11.504 A 3.854 3.854 0 0 0 315.345 10.361 A 1.951 1.951 0 0 0 314.025 9.876 Q 313.791 9.876 313.538 9.922 A 2.965 2.965 0 0 0 313.404 9.95 Q 312.699 10.112 311.834 10.655 A 11.003 11.003 0 0 0 310.999 11.24 Q 309.534 12.363 308.558 13.975 A 6.986 6.986 0 0 0 308.544 13.998 Q 307.67 15.452 307.67 17.066 A 6.055 6.055 0 0 0 307.679 17.393 A 3.425 3.425 0 0 0 308.013 18.684 Q 308.528 19.772 309.827 20.762 A 1.772 1.772 0 0 0 310.395 21.091 Q 310.784 21.229 311.259 21.194 A 3.056 3.056 0 0 0 311.585 21.152 Q 312.659 20.957 313.685 20.322 A 6.828 6.828 0 0 0 314.306 19.887 A 7.732 7.732 0 0 0 315.54 18.662 A 6.832 6.832 0 0 0 316.107 17.854 Z"
              vector-effect="non-scaling-stroke"/>
    </g>
</svg>